M48
;Layer_Color=9474304
;FILE_FORMAT=2:5
INCH,LZ
;TYPE=PLATED
T1F00S00C0.00787
T2F00S00C0.00800
T3F00S00C0.01575
%
T01
X0036958Y0075995
X0040895
Y0079932
X0036958
Y0083869
X0040895
X0044832
Y0079932
Y0075995
T02
X0019808Y002957
X0023089Y0032681
X0029993Y0036408
X0028354Y0041614
X0026375Y0042698
X0024253Y0042726
X0022338Y0046656
X002225Y0048656
X0022784Y0052533
X0025391Y005261
X0027839Y0052596
X0035187Y0055174
X0043Y0056
X0048583Y0054492
X0050747Y0051276
X0048135Y0041996
X0056108Y0031922
X0055001Y0025813
X005365Y0027123
X005259Y0017427
X0054002Y0016048
X0055989Y0010018
X0029983Y0027931
X0057653Y0032902
X0062626Y0032934
X0073786Y0030283
X0074264Y0048873
X0074243Y0051315
X0064758Y004983
X0062691Y0049843
X0060696Y005222
X0061784Y0046044
X0063794Y0045584
X008606Y0041742
X0091843Y0043327
X0073338Y0011298
X0057904Y0010009
X0057Y002
X0057384Y0022501
X0062436Y0057158
X0056654Y0069976
X005728Y0074469
X0057528Y007976
X0056752Y0091124
X0054774Y008678
X0055504Y0084296
X0055652Y0079782
X0050862Y0080914
X0054892Y0063667
X00445Y0064
X0028895Y0059126
X0023438Y0058462
X0023063Y0062712
X0019794Y0065601
X0022128Y007008
X0016351Y007033
X001407Y0078464
X0017483Y0080284
X0021917Y008059
X0026936Y007918
X0029198Y0079142
X0029193Y0082919
X0030076Y0086254
X0022153Y0090478
X0029381Y0072561
X0030888Y0071054
T03
X0066316Y0009813
Y0012963
Y0016112
Y0019262
Y0022411
Y0025561
Y0028711
Y003186
X0069072Y0030286
Y0027136
Y0023986
Y0017687
Y0014537
Y0011388
X0069061Y0065427
Y0068577
Y0071726
X0066305Y0070151
Y0067002
Y0063852
Y0073301
Y0076451
Y00796
Y008275
Y0085899
X0069061Y0084325
Y0081175
Y0078025
M30
