G04*
G04 #@! TF.GenerationSoftware,Altium Limited,Altium Designer,20.1.14 (287)*
G04*
G04 Layer_Color=65535*
%FSLAX25Y25*%
%MOIN*%
G70*
G04*
G04 #@! TF.SameCoordinates,3A9065B2-305A-42DB-86BC-D4C8425A37C0*
G04*
G04*
G04 #@! TF.FilePolarity,Positive*
G04*
G01*
G75*
%ADD10C,0.00394*%
%ADD11C,0.00984*%
%ADD12C,0.00787*%
%ADD13C,0.00500*%
%ADD14C,0.01000*%
%ADD15C,0.00700*%
D10*
X15964Y79261D02*
G03*
X15964Y79261I-197J0D01*
G01*
X50516Y77624D02*
G03*
X50516Y77624I-197J0D01*
G01*
D11*
X60820Y7894D02*
G03*
X60820Y7894I-449J0D01*
G01*
X66725Y34665D02*
G03*
X66725Y34665I-449J0D01*
G01*
X13527Y36968D02*
G03*
X13527Y36968I-449J0D01*
G01*
X20134Y91918D02*
G03*
X20134Y91918I-394J0D01*
G01*
X66714Y88704D02*
G03*
X66714Y88704I-449J0D01*
G01*
X60809Y61933D02*
G03*
X60809Y61933I-449J0D01*
G01*
D12*
X62064Y33041D02*
Y38041D01*
X93363D02*
X106788Y38041D01*
X74741Y38041D02*
X85528D01*
X62064D02*
X66946D01*
X106788Y3632D02*
Y38041D01*
X62064Y3632D02*
X66946D01*
X74741D02*
X85528D01*
X93363D02*
X106788Y3632D01*
X62064Y3632D02*
Y8632D01*
X-27178Y31406D02*
X15145Y31406D01*
Y63887D01*
X-27178Y63887D02*
X15145Y63887D01*
X-27178Y31406D02*
Y63887D01*
X62053Y57671D02*
Y62671D01*
X93352Y57671D02*
X106777Y57671D01*
X74730Y57671D02*
X85517D01*
X62053D02*
X66935D01*
X106777D02*
Y92080D01*
X62053D02*
X66935D01*
X74730D02*
X85517D01*
X93352D02*
X106777Y92080D01*
X62053Y87081D02*
Y92080D01*
D13*
X44779Y83039D02*
Y92134D01*
X22732D02*
X44779D01*
X22732Y83039D02*
Y92134D01*
Y83039D02*
X44779D01*
X36951Y64891D02*
Y69891D01*
X37079Y57631D02*
Y62631D01*
D14*
X46467Y90837D02*
X47466D01*
X46966D01*
Y93836D01*
X46467Y93336D01*
X48966Y93836D02*
Y91837D01*
X49965Y90837D01*
X50965Y91837D01*
Y93836D01*
X51965Y93336D02*
X52465Y93836D01*
X53464D01*
X53964Y93336D01*
Y92837D01*
X53464Y92337D01*
X53964Y91837D01*
Y91337D01*
X53464Y90837D01*
X52465D01*
X51965Y91337D01*
Y91837D01*
X52465Y92337D01*
X51965Y92837D01*
Y93336D01*
X52465Y92337D02*
X53464D01*
X13454Y93336D02*
X13954Y93836D01*
X14954D01*
X15454Y93336D01*
Y92837D01*
X14954Y92337D01*
X14454D01*
X14954D01*
X15454Y91837D01*
Y91337D01*
X14954Y90837D01*
X13954D01*
X13454Y91337D01*
X16453Y93836D02*
Y91837D01*
X17453Y90837D01*
X18453Y91837D01*
Y93836D01*
X19452Y93336D02*
X19952Y93836D01*
X20952D01*
X21452Y93336D01*
Y92837D01*
X20952Y92337D01*
X20452D01*
X20952D01*
X21452Y91837D01*
Y91337D01*
X20952Y90837D01*
X19952D01*
X19452Y91337D01*
X44208Y65402D02*
Y69400D01*
X46207D01*
X46874Y68734D01*
Y67401D01*
X46207Y66734D01*
X44208D01*
X45541D02*
X46874Y65402D01*
X48206Y69400D02*
X50872Y65402D01*
Y69400D02*
X48206Y65402D01*
X44073Y62119D02*
X46739D01*
X45406D01*
Y58120D01*
X48072Y62119D02*
X50738Y58120D01*
Y62119D02*
X48072Y58120D01*
X37021Y71407D02*
Y74406D01*
X38521D01*
X39021Y73906D01*
Y72906D01*
X38521Y72406D01*
X37021D01*
X38021D02*
X39021Y71407D01*
X42020D02*
X40020D01*
X42020Y73406D01*
Y73906D01*
X41520Y74406D01*
X40520D01*
X40020Y73906D01*
X43019D02*
X43519Y74406D01*
X44519D01*
X45019Y73906D01*
Y71907D01*
X44519Y71407D01*
X43519D01*
X43019Y71907D01*
Y73906D01*
X12211Y69133D02*
Y72132D01*
X13710D01*
X14210Y71633D01*
Y70633D01*
X13710Y70133D01*
X12211D01*
X13211D02*
X14210Y69133D01*
X15210D02*
X16210D01*
X15710D01*
Y72132D01*
X15210Y71633D01*
X17709Y69633D02*
X18209Y69133D01*
X19209D01*
X19708Y69633D01*
Y71633D01*
X19209Y72132D01*
X18209D01*
X17709Y71633D01*
Y71133D01*
X18209Y70633D01*
X19708D01*
X56547Y53946D02*
X53548D01*
Y55445D01*
X54048Y55945D01*
X55048D01*
X55547Y55445D01*
Y53946D01*
Y54946D02*
X56547Y55945D01*
Y56945D02*
Y57945D01*
Y57445D01*
X53548D01*
X54048Y56945D01*
Y59444D02*
X53548Y59944D01*
Y60944D01*
X54048Y61444D01*
X54548D01*
X55048Y60944D01*
X55547Y61444D01*
X56047D01*
X56547Y60944D01*
Y59944D01*
X56047Y59444D01*
X55547D01*
X55048Y59944D01*
X54548Y59444D01*
X54048D01*
X55048Y59944D02*
Y60944D01*
X20875Y78017D02*
Y81016D01*
X22374D01*
X22874Y80516D01*
Y79516D01*
X22374Y79016D01*
X20875D01*
X21874D02*
X22874Y78017D01*
X23874D02*
X24873D01*
X24374D01*
Y81016D01*
X23874Y80516D01*
X26373Y81016D02*
X28372D01*
Y80516D01*
X26373Y78517D01*
Y78017D01*
X16870Y80733D02*
Y82732D01*
X16370Y83232D01*
X15371D01*
X14871Y82732D01*
Y80733D01*
X15371Y80233D01*
X16370D01*
X15870Y81233D02*
X16870Y80233D01*
X16370D02*
X16870Y80733D01*
X19869Y80233D02*
X17870D01*
X19869Y82232D01*
Y82732D01*
X19369Y83232D01*
X18370D01*
X17870Y82732D01*
X54262Y6464D02*
X52929D01*
X53596D01*
Y3132D01*
X52929Y2465D01*
X52263D01*
X51596Y3132D01*
X58261Y2465D02*
X55595D01*
X58261Y5131D01*
Y5798D01*
X57594Y6464D01*
X56261D01*
X55595Y5798D01*
X24947Y61626D02*
Y64626D01*
X26446D01*
X26946Y64126D01*
Y63126D01*
X26446Y62626D01*
X24947D01*
X25946D02*
X26946Y61626D01*
X29945Y64626D02*
X28945Y64126D01*
X27946Y63126D01*
Y62126D01*
X28445Y61626D01*
X29445D01*
X29945Y62126D01*
Y62626D01*
X29445Y63126D01*
X27946D01*
X28953Y71456D02*
X25954D01*
Y72956D01*
X26454Y73456D01*
X27453D01*
X27953Y72956D01*
Y71456D01*
Y72456D02*
X28953Y73456D01*
X25954Y76455D02*
Y74455D01*
X27453D01*
X26954Y75455D01*
Y75955D01*
X27453Y76455D01*
X28453D01*
X28953Y75955D01*
Y74955D01*
X28453Y74455D01*
X52547Y39930D02*
X50427Y42051D01*
X51487Y43111D01*
X52194Y43111D01*
X52901Y42404D01*
X52901Y41697D01*
X51840Y40637D01*
X52547Y41344D02*
X53961Y41344D01*
X56082Y43465D02*
X54668Y42051D01*
Y44878D01*
X54315Y45232D01*
X53608Y45232D01*
X52901Y44525D01*
Y43818D01*
X44130Y50317D02*
X42009Y52437D01*
X43070Y53498D01*
X43777Y53498D01*
X44484Y52791D01*
X44484Y52084D01*
X43423Y51024D01*
X44130Y51731D02*
X45544Y51731D01*
X46251Y52437D02*
X46958Y53144D01*
X46604Y52791D01*
X44484Y54912D01*
Y54205D01*
X65520Y55410D02*
X64187D01*
X64854D01*
Y52078D01*
X64187Y51412D01*
X63521D01*
X62854Y52078D01*
X66853Y54744D02*
X67519Y55410D01*
X68852D01*
X69519Y54744D01*
Y54078D01*
X68852Y53411D01*
X68186D01*
X68852D01*
X69519Y52745D01*
Y52078D01*
X68852Y51412D01*
X67519D01*
X66853Y52078D01*
X14340Y28283D02*
X13007D01*
X13674D01*
Y24951D01*
X13007Y24284D01*
X12341D01*
X11674Y24951D01*
X15673Y24284D02*
X17006D01*
X16340D01*
Y28283D01*
X15673Y27617D01*
X46289Y73752D02*
X48788D01*
X49288Y74252D01*
Y75251D01*
X48788Y75751D01*
X46289D01*
X49288Y76751D02*
Y77750D01*
Y77251D01*
X46289D01*
X46789Y76751D01*
X36414Y89855D02*
X35831Y90438D01*
X34665D01*
X34081Y89855D01*
Y89272D01*
X34665Y88689D01*
X35831D01*
X36414Y88106D01*
Y87523D01*
X35831Y86940D01*
X34665D01*
X34081Y87523D01*
X37580Y90438D02*
Y86940D01*
X38747Y88106D01*
X39913Y86940D01*
Y90438D01*
X41079Y86940D02*
X42245D01*
X41662D01*
Y90438D01*
X41079Y89855D01*
X35024Y53590D02*
Y50591D01*
X36523D01*
X37023Y51091D01*
Y53090D01*
X36523Y53590D01*
X35024D01*
X40022Y50591D02*
X38023D01*
X40022Y52590D01*
Y53090D01*
X39522Y53590D01*
X38523D01*
X38023Y53090D01*
X35135Y48856D02*
Y45857D01*
X36635D01*
X37135Y46357D01*
Y48356D01*
X36635Y48856D01*
X35135D01*
X38134Y45857D02*
X39134D01*
X38634D01*
Y48856D01*
X38134Y48356D01*
X58399Y56335D02*
X57899Y55835D01*
Y54835D01*
X58399Y54336D01*
X60398D01*
X60898Y54835D01*
Y55835D01*
X60398Y56335D01*
X57899Y59334D02*
X58399Y58334D01*
X59398Y57335D01*
X60398D01*
X60898Y57835D01*
Y58834D01*
X60398Y59334D01*
X59898D01*
X59398Y58834D01*
Y57335D01*
X46685Y81415D02*
X46185Y80915D01*
Y79915D01*
X46685Y79416D01*
X48684D01*
X49184Y79915D01*
Y80915D01*
X48684Y81415D01*
X49184Y84414D02*
Y82415D01*
X47185Y84414D01*
X46685D01*
X46185Y83914D01*
Y82915D01*
X46685Y82415D01*
D15*
X55493Y22122D02*
X55128Y22464D01*
X54422Y22441D01*
X52712Y20618D01*
X53806Y19593D01*
X54513Y19615D01*
X55196Y20345D01*
X55174Y21051D01*
X54080Y22077D01*
X52986Y23102D02*
X52256Y23786D01*
X51550Y23763D01*
X50866Y23034D01*
X50889Y22327D01*
X51618Y21644D01*
X52325Y21666D01*
X53009Y22396D01*
X52986Y23102D01*
X51162Y24812D02*
X48336Y24720D01*
X45465Y26042D02*
X47516Y28230D01*
X48610Y27204D01*
X48632Y26498D01*
X47949Y25769D01*
X47242Y25746D01*
X46148Y26771D01*
X45419Y27455D02*
X46786Y28914D01*
X46103Y28184D01*
X45396Y28161D01*
X44690Y28139D01*
X44325Y28480D01*
X44234Y31306D02*
X43504Y31990D01*
X42798Y31967D01*
X42114Y31238D01*
X42137Y30532D01*
X42866Y29848D01*
X43573Y29871D01*
X44256Y30600D01*
X44234Y31306D01*
X42410Y33016D02*
X41681Y33699D01*
X42046Y33358D01*
X40678Y31899D01*
X41043Y31557D01*
X37077Y33904D02*
X39128Y36092D01*
X40222Y35067D01*
X40245Y34360D01*
X39562Y33631D01*
X38855Y33608D01*
X37761Y34634D01*
X37374Y35682D02*
X35915Y37049D01*
X33385Y38736D02*
X34479Y37710D01*
X35186Y37733D01*
X35869Y38462D01*
X35846Y39169D01*
X34752Y40194D01*
X32929Y41904D02*
X33658Y41220D01*
X33681Y40514D01*
X32998Y39784D01*
X32291Y39761D01*
X31562Y40445D01*
X31539Y41151D01*
X31881Y41516D01*
X33339Y40149D01*
X30468Y41471D02*
X31835Y42929D01*
X31151Y42200D01*
X30445Y42177D01*
X29738Y42154D01*
X29374Y42496D01*
X28553Y46006D02*
X29282Y45322D01*
X29305Y44616D01*
X28622Y43886D01*
X27915Y43863D01*
X27186Y44547D01*
X27163Y45254D01*
X27505Y45618D01*
X28963Y44251D01*
X25727Y45915D02*
X24998Y46598D01*
X24975Y47305D01*
X26000Y48399D01*
X27094Y47373D01*
X27117Y46667D01*
X26411Y46644D01*
X25317Y47669D01*
X25271Y49082D02*
X24542Y49766D01*
X24906Y49424D01*
X22855Y47236D01*
X23220Y46894D01*
M02*
