G04*
G04 #@! TF.GenerationSoftware,Altium Limited,Altium Designer,20.1.14 (287)*
G04*
G04 Layer_Color=128*
%FSLAX25Y25*%
%MOIN*%
G70*
G04*
G04 #@! TF.SameCoordinates,3A9065B2-305A-42DB-86BC-D4C8425A37C0*
G04*
G04*
G04 #@! TF.FilePolarity,Positive*
G04*
G01*
G75*
%ADD16R,0.01181X0.01102*%
%ADD17R,0.01102X0.01181*%
%ADD24R,0.05906X0.01378*%
%ADD61R,0.02165X0.02165*%
%ADD62O,0.06299X0.01575*%
%ADD63R,0.01968X0.01575*%
%ADD64P,0.03062X4X360.0*%
%ADD65R,0.01378X0.00984*%
%ADD66R,0.00787X0.01181*%
%ADD67R,0.03937X0.03543*%
%ADD79R,0.02362X0.01181*%
%ADD80R,0.01181X0.02362*%
%ADD81R,0.02362X0.01181*%
G36*
X33612Y73633D02*
Y73239D01*
X32824Y72452D01*
X31250D01*
Y73633D01*
X33612Y73633D01*
D02*
G37*
G36*
X34596Y70287D02*
X33415D01*
Y71861D01*
X34202Y72649D01*
X34596D01*
X34596Y70287D01*
D02*
G37*
G36*
X34596Y87216D02*
X34202D01*
X33415Y88003D01*
Y89578D01*
X34596D01*
X34596Y87216D01*
D02*
G37*
G36*
X33612Y86625D02*
Y86231D01*
X31250Y86235D01*
Y87409D01*
X32824Y87413D01*
X33612Y86625D01*
D02*
G37*
G36*
X50541Y72452D02*
X48966D01*
X48179Y73239D01*
Y73633D01*
X50541Y73633D01*
Y72452D01*
D02*
G37*
G36*
X48376Y71861D02*
Y70287D01*
X47194D01*
X47194Y72649D01*
X47588D01*
X48376Y71861D01*
D02*
G37*
G36*
Y88003D02*
X47588Y87216D01*
X47194D01*
X47194Y89578D01*
X48376D01*
Y88003D01*
D02*
G37*
G36*
X50541Y86231D02*
X48179Y86231D01*
Y86625D01*
X48966Y87413D01*
X50541D01*
Y86231D01*
D02*
G37*
D16*
X28335Y75021D02*
D03*
Y76871D02*
D03*
X56998Y56729D02*
D03*
Y58579D02*
D03*
X91432Y47109D02*
D03*
Y45258D02*
D03*
X59381Y56705D02*
D03*
Y54855D02*
D03*
X21993Y83656D02*
D03*
Y85506D02*
D03*
X93733Y47360D02*
D03*
Y45510D02*
D03*
X25716Y75037D02*
D03*
Y76887D02*
D03*
X62552Y51205D02*
D03*
Y53055D02*
D03*
X64751Y51210D02*
D03*
Y53061D02*
D03*
D17*
X47188Y92044D02*
D03*
X49038D02*
D03*
X81476Y58072D02*
D03*
X83327D02*
D03*
X32292Y68081D02*
D03*
X34142D02*
D03*
X83302Y55925D02*
D03*
X81452D02*
D03*
X78964Y39557D02*
D03*
X77114D02*
D03*
X89928Y54145D02*
D03*
X88077D02*
D03*
D24*
X18885Y58473D02*
D03*
Y56505D02*
D03*
Y54536D02*
D03*
Y52568D02*
D03*
Y50599D02*
D03*
Y44694D02*
D03*
Y42725D02*
D03*
Y40757D02*
D03*
Y38788D02*
D03*
Y36820D02*
D03*
D61*
X22906Y73329D02*
D03*
Y77929D02*
D03*
D62*
X86166Y51408D02*
D03*
Y48849D02*
D03*
Y46290D02*
D03*
Y43731D02*
D03*
X69631Y51408D02*
D03*
Y48849D02*
D03*
Y46290D02*
D03*
Y43731D02*
D03*
D63*
X53722Y60027D02*
D03*
Y57468D02*
D03*
Y54909D02*
D03*
X46242D02*
D03*
Y57468D02*
D03*
Y60027D02*
D03*
D64*
X49502Y43392D02*
D03*
X46249Y46644D02*
D03*
X37620Y54409D02*
D03*
X34368Y57662D02*
D03*
D65*
X40023Y61510D02*
D03*
X42188D02*
D03*
D66*
X39728Y59867D02*
D03*
X42483D02*
D03*
X39728Y63154D02*
D03*
X42483D02*
D03*
X41105D02*
D03*
Y59867D02*
D03*
D67*
X19869Y62706D02*
D03*
Y32588D02*
D03*
D79*
X40895Y84854D02*
D03*
X44832D02*
D03*
X36958D02*
D03*
X40895Y82885D02*
D03*
X36958D02*
D03*
X44832D02*
D03*
X40895Y76980D02*
D03*
X44832D02*
D03*
X36958D02*
D03*
X40895Y75011D02*
D03*
X36958D02*
D03*
X44832D02*
D03*
X44832Y78948D02*
D03*
X36958D02*
D03*
X40895D02*
D03*
X36958Y80917D02*
D03*
X44832D02*
D03*
X40895D02*
D03*
D80*
X45816Y88397D02*
D03*
X43848Y88397D02*
D03*
X41879Y88397D02*
D03*
X39911D02*
D03*
X37942Y88397D02*
D03*
X35974D02*
D03*
X45816Y71468D02*
D03*
X43848Y71468D02*
D03*
X41879Y71468D02*
D03*
X39911D02*
D03*
X37942Y71468D02*
D03*
X35974D02*
D03*
D81*
X49360Y84854D02*
D03*
X49360Y82885D02*
D03*
Y80917D02*
D03*
Y78948D02*
D03*
Y76980D02*
D03*
Y75011D02*
D03*
X32431D02*
D03*
Y76980D02*
D03*
Y78948D02*
D03*
Y80917D02*
D03*
Y82885D02*
D03*
X32431Y84854D02*
D03*
M02*
