G04*
G04 #@! TF.GenerationSoftware,Altium Limited,Altium Designer,20.1.14 (287)*
G04*
G04 Layer_Color=32896*
%FSLAX25Y25*%
%MOIN*%
G70*
G04*
G04 #@! TF.SameCoordinates,3A9065B2-305A-42DB-86BC-D4C8425A37C0*
G04*
G04*
G04 #@! TF.FilePolarity,Positive*
G04*
G01*
G75*
%ADD10C,0.00394*%
%ADD11C,0.00984*%
%ADD12C,0.00787*%
%ADD14C,0.01000*%
D10*
X37464Y63576D02*
G03*
X37464Y63576I-197J0D01*
G01*
D11*
X54576Y89972D02*
G03*
X54576Y89972I-492J0D01*
G01*
X86658Y54361D02*
G03*
X86658Y54361I-492J0D01*
G01*
X54214Y62980D02*
G03*
X54214Y62980I-492J0D01*
G01*
X13527Y58325D02*
G03*
X13527Y58325I-449J0D01*
G01*
D12*
X30265Y90562D02*
X31840D01*
X30265Y88987D02*
Y90562D01*
Y69302D02*
X31840D01*
X30265D02*
Y70877D01*
X49950Y69302D02*
X51525D01*
Y70877D01*
X49950Y90562D02*
X51525D01*
Y88987D02*
Y90562D01*
X81442Y41467D02*
Y53672D01*
X74355Y41467D02*
Y53672D01*
X81442D01*
X74355Y41467D02*
X81442D01*
X48801Y61798D02*
X51163D01*
X48801Y53137D02*
X51163D01*
Y61798D01*
X48801Y53137D02*
Y61798D01*
X-27178Y31406D02*
Y63887D01*
Y31406D02*
X15145Y31406D01*
Y63887D01*
X-27178Y63887D02*
X15145Y63887D01*
D14*
X93053Y44078D02*
X93846Y43285D01*
Y33898D02*
Y43285D01*
X21906Y75629D02*
X23906D01*
X43700Y45853D02*
X48711Y40842D01*
X47040Y49194D02*
X52051Y44183D01*
X31818Y56871D02*
X36829Y51860D01*
X35159Y60211D02*
X40170Y55200D01*
X63328Y67480D02*
X60329D01*
Y65980D01*
X60829Y65481D01*
X61829D01*
X62329Y65980D01*
Y67480D01*
Y66480D02*
X63328Y65481D01*
X60829Y64481D02*
X60329Y63981D01*
Y62981D01*
X60829Y62481D01*
X61329D01*
X61829Y62981D01*
X62329Y62481D01*
X62829D01*
X63328Y62981D01*
Y63981D01*
X62829Y64481D01*
X62329D01*
X61829Y63981D01*
X61329Y64481D01*
X60829D01*
X61829Y63981D02*
Y62981D01*
X65548Y91068D02*
Y94067D01*
X64048D01*
X63548Y93567D01*
Y92567D01*
X64048Y92067D01*
X65548D01*
X64548D02*
X63548Y91068D01*
X62549D02*
X61549D01*
X62049D01*
Y94067D01*
X62549Y93567D01*
X58550Y91068D02*
Y94067D01*
X60049Y92567D01*
X58050D01*
X58516Y68142D02*
X55517D01*
Y66643D01*
X56017Y66143D01*
X57017D01*
X57517Y66643D01*
Y68142D01*
Y67142D02*
X58516Y66143D01*
Y65143D02*
Y64143D01*
Y64643D01*
X55517D01*
X56017Y65143D01*
Y62644D02*
X55517Y62144D01*
Y61144D01*
X56017Y60645D01*
X56517D01*
X57017Y61144D01*
Y61644D01*
Y61144D01*
X57517Y60645D01*
X58017D01*
X58516Y61144D01*
Y62144D01*
X58017Y62644D01*
X86742Y25904D02*
X89741D01*
Y27403D01*
X89241Y27903D01*
X88242D01*
X87742Y27403D01*
Y25904D01*
Y26904D02*
X86742Y27903D01*
Y28903D02*
Y29902D01*
Y29403D01*
X89741D01*
X89241Y28903D01*
X89741Y33401D02*
X89241Y32402D01*
X88242Y31402D01*
X87242D01*
X86742Y31902D01*
Y32902D01*
X87242Y33401D01*
X87742D01*
X88242Y32902D01*
Y31402D01*
X34848Y74708D02*
X37847D01*
Y76208D01*
X37347Y76708D01*
X36348D01*
X35848Y76208D01*
Y74708D01*
Y75708D02*
X34848Y76708D01*
Y77707D02*
Y78707D01*
Y78207D01*
X37847D01*
X37347Y77707D01*
X37847Y82206D02*
Y80207D01*
X36348D01*
X36847Y81206D01*
Y81706D01*
X36348Y82206D01*
X35348D01*
X34848Y81706D01*
Y80706D01*
X35348Y80207D01*
X51800Y67344D02*
Y64345D01*
X50301D01*
X49801Y64845D01*
Y66844D01*
X50301Y67344D01*
X51800D01*
X46802D02*
X48801D01*
Y65845D01*
X47802Y66344D01*
X47302D01*
X46802Y65845D01*
Y64845D01*
X47302Y64345D01*
X48302D01*
X48801Y64845D01*
X43959Y94021D02*
Y91522D01*
X43459Y91022D01*
X42459D01*
X41959Y91522D01*
Y94021D01*
X40960Y93521D02*
X40460Y94021D01*
X39460D01*
X38960Y93521D01*
Y93022D01*
X39460Y92522D01*
X39960D01*
X39460D01*
X38960Y92022D01*
Y91522D01*
X39460Y91022D01*
X40460D01*
X40960Y91522D01*
X33504Y66010D02*
X34003Y66510D01*
X35003D01*
X35503Y66010D01*
Y64011D01*
X35003Y63511D01*
X34003D01*
X33504Y64011D01*
X30505Y66510D02*
X32504D01*
Y65010D01*
X31504Y65510D01*
X31005D01*
X30505Y65010D01*
Y64011D01*
X31005Y63511D01*
X32004D01*
X32504Y64011D01*
X91217Y26035D02*
X94216D01*
Y27534D01*
X93716Y28034D01*
X92716D01*
X92217Y27534D01*
Y26035D01*
Y27034D02*
X91217Y28034D01*
X91717Y29034D02*
X91217Y29534D01*
Y30533D01*
X91717Y31033D01*
X93716D01*
X94216Y30533D01*
Y29534D01*
X93716Y29034D01*
X93216D01*
X92716Y29534D01*
Y31033D01*
X20321Y88306D02*
X17322D01*
Y86806D01*
X17822Y86306D01*
X18822D01*
X19322Y86806D01*
Y88306D01*
Y87306D02*
X20321Y86306D01*
X17322Y85307D02*
Y83307D01*
X17822D01*
X19821Y85307D01*
X20321D01*
X80186Y57717D02*
Y55218D01*
X79686Y54718D01*
X78686D01*
X78187Y55218D01*
Y57717D01*
X75187Y54718D02*
X77187D01*
X75187Y56718D01*
Y57217D01*
X75687Y57717D01*
X76687D01*
X77187Y57217D01*
X91291Y70704D02*
X87792D01*
Y68955D01*
X88376Y68372D01*
X89542D01*
X90125Y68955D01*
Y70704D01*
Y69538D02*
X91291Y68372D01*
Y67206D02*
Y66039D01*
Y66622D01*
X87792D01*
X88376Y67206D01*
X91291Y61957D02*
Y64290D01*
X88959Y61957D01*
X88376D01*
X87792Y62540D01*
Y63707D01*
X88376Y64290D01*
X84328Y66170D02*
Y69669D01*
X82578D01*
X81995Y69086D01*
Y67919D01*
X82578Y67336D01*
X84328D01*
X83161D02*
X81995Y66170D01*
X80829D02*
X79662D01*
X80246D01*
Y69669D01*
X80829Y69086D01*
X77913Y66170D02*
X76747D01*
X77330D01*
Y69669D01*
X77913Y69086D01*
X84503Y60330D02*
Y63829D01*
X82754D01*
X82171Y63246D01*
Y62079D01*
X82754Y61496D01*
X84503D01*
X83337D02*
X82171Y60330D01*
X81004D02*
X79838D01*
X80421D01*
Y63829D01*
X81004Y63246D01*
X78088D02*
X77505Y63829D01*
X76339D01*
X75756Y63246D01*
Y60913D01*
X76339Y60330D01*
X77505D01*
X78088Y60913D01*
Y63246D01*
X52708Y42409D02*
X50587Y40288D01*
X51648Y39228D01*
X52355Y39228D01*
X53061Y39935D01*
X53061Y40641D01*
X52001Y41702D01*
X52708Y40995D02*
X54122Y40995D01*
X55889Y39228D02*
X53768Y37107D01*
X53768Y39228D01*
X55182Y37814D01*
X40391Y53275D02*
X38270Y51154D01*
X39330Y50094D01*
X40037Y50094D01*
X40744Y50801D01*
X40744Y51507D01*
X39684Y52568D01*
X40391Y51861D02*
X41805Y51861D01*
X40744Y49387D02*
Y48680D01*
X41451Y47973D01*
X42158Y47973D01*
X42511Y48326D01*
Y49033D01*
X42158Y49387D01*
X42511Y49033D01*
X43218Y49033D01*
X43572Y49387D01*
X43572Y50094D01*
X42865Y50801D01*
X42158D01*
X40602Y65520D02*
Y67520D01*
X41101Y68020D01*
X42101D01*
X42601Y67520D01*
Y65520D01*
X42101Y65021D01*
X41101D01*
X41601Y66020D02*
X40602Y65021D01*
X41101D02*
X40602Y65520D01*
X39602Y65021D02*
X38602D01*
X39102D01*
Y68020D01*
X39602Y67520D01*
X56746Y51286D02*
X56246Y51786D01*
Y52785D01*
X56746Y53285D01*
X58745D01*
X59245Y52785D01*
Y51786D01*
X58745Y51286D01*
X59245Y50286D02*
Y49286D01*
Y49786D01*
X56246D01*
X56746Y50286D01*
Y47787D02*
X56246Y47287D01*
Y46288D01*
X56746Y45788D01*
X58745D01*
X59245Y46288D01*
Y47287D01*
X58745Y47787D01*
X56746D01*
X64514Y58632D02*
X64014Y59132D01*
Y60131D01*
X64514Y60631D01*
X66513D01*
X67013Y60131D01*
Y59132D01*
X66513Y58632D01*
Y57632D02*
X67013Y57132D01*
Y56133D01*
X66513Y55633D01*
X64514D01*
X64014Y56133D01*
Y57132D01*
X64514Y57632D01*
X65014D01*
X65513Y57132D01*
Y55633D01*
X11546Y75136D02*
X11046Y75636D01*
Y76635D01*
X11546Y77135D01*
X13545D01*
X14045Y76635D01*
Y75636D01*
X13545Y75136D01*
X14045Y72637D02*
X11046D01*
X12546Y74136D01*
Y72137D01*
X16088Y75405D02*
X15588Y75905D01*
Y76905D01*
X16088Y77405D01*
X18088D01*
X18587Y76905D01*
Y75905D01*
X18088Y75405D01*
X16088Y74406D02*
X15588Y73906D01*
Y72906D01*
X16088Y72406D01*
X16588D01*
X17088Y72906D01*
Y73406D01*
Y72906D01*
X17588Y72406D01*
X18088D01*
X18587Y72906D01*
Y73906D01*
X18088Y74406D01*
X77948Y37207D02*
X78448Y37706D01*
X79448D01*
X79948Y37207D01*
Y35207D01*
X79448Y34707D01*
X78448D01*
X77948Y35207D01*
X76948Y34707D02*
X75949D01*
X76449D01*
Y37706D01*
X76948Y37207D01*
M02*
