G04*
G04 #@! TF.GenerationSoftware,Altium Limited,Altium Designer,20.1.14 (287)*
G04*
G04 Layer_Color=32768*
%FSLAX25Y25*%
%MOIN*%
G70*
G04*
G04 #@! TF.SameCoordinates,3A9065B2-305A-42DB-86BC-D4C8425A37C0*
G04*
G04*
G04 #@! TF.FilePolarity,Positive*
G04*
G01*
G75*
%ADD10C,0.00394*%
%ADD12C,0.00787*%
%ADD13C,0.00500*%
%ADD83C,0.00197*%
D10*
X15864Y75422D02*
X19801D01*
X17832Y73454D02*
Y77391D01*
X51638Y76049D02*
X55575D01*
X53606Y74080D02*
Y78017D01*
X38927Y79932D02*
X42864D01*
X40895Y77964D02*
Y81901D01*
X75930Y47570D02*
X79867D01*
X77898Y45601D02*
Y49538D01*
X48013Y57468D02*
X51950D01*
X49982Y55499D02*
Y59436D01*
X39137Y61510D02*
X43074D01*
X41105Y59542D02*
Y63479D01*
X31940Y70344D02*
X42963D01*
X31940Y64438D02*
X42963D01*
X31940D02*
Y70344D01*
X42963Y64438D02*
Y70344D01*
X36951Y67391D02*
X37951D01*
X37451Y66891D02*
Y67891D01*
X32067Y63084D02*
X43090D01*
X32067Y57179D02*
X43090D01*
X32067D02*
Y63084D01*
X43090Y57179D02*
Y63084D01*
X37079Y60132D02*
X38079D01*
X37579Y59632D02*
Y60632D01*
D12*
X103048Y3632D02*
Y38041D01*
X103037Y57671D02*
Y92080D01*
D13*
X33756Y86587D02*
Y88587D01*
X32756Y87587D02*
X34756D01*
X15271Y93118D02*
X52240D01*
Y82055D02*
Y93118D01*
X15271Y82055D02*
Y93118D01*
Y82055D02*
X52240D01*
D83*
X14781Y72174D02*
Y78670D01*
X20884Y72174D02*
Y78670D01*
X14781D02*
X20884D01*
X14781Y72174D02*
X20884D01*
X51106Y73293D02*
Y78805D01*
X56106Y73293D02*
Y78805D01*
X51106D02*
X56106D01*
X51106Y73293D02*
X56106D01*
X51328Y69499D02*
Y90365D01*
X30462Y69499D02*
X51328D01*
X30462D02*
Y90365D01*
X51328D01*
X90300Y40483D02*
Y54656D01*
X65497Y40483D02*
Y54656D01*
X90300D01*
X65497Y40483D02*
X90300D01*
X55100Y52743D02*
Y62192D01*
X44864Y52743D02*
Y62192D01*
X55100D01*
X44864Y52743D02*
X55100D01*
X44353Y58459D02*
Y64562D01*
X37857Y58459D02*
Y64562D01*
Y58459D02*
X44353D01*
X37857Y64562D02*
X44353D01*
M02*
