G04*
G04 #@! TF.GenerationSoftware,Altium Limited,Altium Designer,20.1.14 (287)*
G04*
G04 Layer_Physical_Order=3*
G04 Layer_Color=16440176*
%FSLAX25Y25*%
%MOIN*%
G70*
G04*
G04 #@! TF.SameCoordinates,3A9065B2-305A-42DB-86BC-D4C8425A37C0*
G04*
G04*
G04 #@! TF.FilePolarity,Positive*
G04*
G01*
G75*
%ADD13C,0.00500*%
%ADD50C,0.02559*%
%ADD51O,0.06299X0.03937*%
%ADD52C,0.01500*%
%ADD53C,0.01968*%
G36*
X99064Y95547D02*
X99417Y95193D01*
X99411Y-18D01*
X10356Y-18D01*
X10002Y335D01*
X10030Y95547D01*
X99064Y95547D01*
D02*
G37*
%LPC*%
G36*
X56752Y92399D02*
X56264Y92302D01*
X55851Y92025D01*
X55574Y91612D01*
X55477Y91124D01*
X55574Y90636D01*
X55851Y90223D01*
X56264Y89947D01*
X56752Y89850D01*
X57240Y89947D01*
X57653Y90223D01*
X57929Y90636D01*
X58026Y91124D01*
X57929Y91612D01*
X57653Y92025D01*
X57240Y92302D01*
X56752Y92399D01*
D02*
G37*
G36*
X22153Y91753D02*
X21665Y91656D01*
X21251Y91380D01*
X20975Y90966D01*
X20878Y90478D01*
X20975Y89991D01*
X21251Y89577D01*
X21665Y89301D01*
X22153Y89204D01*
X22640Y89301D01*
X23054Y89577D01*
X23330Y89991D01*
X23427Y90478D01*
X23330Y90966D01*
X23054Y91380D01*
X22640Y91656D01*
X22153Y91753D01*
D02*
G37*
G36*
X54774Y88055D02*
X54286Y87958D01*
X53873Y87681D01*
X53597Y87268D01*
X53500Y86780D01*
X53597Y86292D01*
X53873Y85879D01*
X54286Y85603D01*
X54314Y85597D01*
X54379Y85507D01*
X54504Y85049D01*
X54326Y84784D01*
X54229Y84296D01*
X54326Y83808D01*
X54602Y83395D01*
X55016Y83118D01*
X55504Y83021D01*
X55991Y83118D01*
X56405Y83395D01*
X56681Y83808D01*
X56778Y84296D01*
X56681Y84784D01*
X56405Y85197D01*
X55991Y85473D01*
X55963Y85479D01*
X55898Y85569D01*
X55774Y86026D01*
X55951Y86292D01*
X56049Y86780D01*
X55951Y87268D01*
X55675Y87681D01*
X55262Y87958D01*
X54774Y88055D01*
D02*
G37*
G36*
X29193Y84194D02*
X28705Y84097D01*
X28291Y83820D01*
X28015Y83407D01*
X27918Y82919D01*
X28015Y82432D01*
X28291Y82018D01*
X28705Y81742D01*
X29193Y81645D01*
X29680Y81742D01*
X30094Y82018D01*
X30370Y82432D01*
X30467Y82919D01*
X30370Y83407D01*
X30094Y83820D01*
X29680Y84097D01*
X29193Y84194D01*
D02*
G37*
G36*
X69061Y86139D02*
X68366Y86001D01*
X67778Y85608D01*
X67384Y85019D01*
X67246Y84325D01*
X67384Y83630D01*
X67769Y83054D01*
X67840Y82930D01*
Y82570D01*
X67769Y82446D01*
X67384Y81869D01*
X67341Y81650D01*
X66999Y81277D01*
X66305Y81415D01*
X65610Y81277D01*
X65022Y80883D01*
X64628Y80295D01*
X64490Y79600D01*
X64628Y78906D01*
X65022Y78317D01*
X65084Y78275D01*
Y77775D01*
X65022Y77734D01*
X64628Y77145D01*
X64490Y76451D01*
X64628Y75756D01*
X65022Y75168D01*
X65084Y75126D01*
Y74626D01*
X65022Y74584D01*
X64628Y73995D01*
X64490Y73301D01*
X64628Y72607D01*
X65022Y72018D01*
X65084Y71976D01*
Y71476D01*
X65022Y71434D01*
X64628Y70846D01*
X64490Y70151D01*
X64628Y69457D01*
X65022Y68868D01*
X65610Y68475D01*
X66305Y68337D01*
X66999Y68475D01*
X67341Y68102D01*
X67384Y67882D01*
X67769Y67306D01*
X67840Y67182D01*
Y66822D01*
X67769Y66698D01*
X67384Y66121D01*
X67246Y65427D01*
X67384Y64733D01*
X67778Y64144D01*
X68366Y63751D01*
X69061Y63613D01*
X69755Y63751D01*
X70344Y64144D01*
X70737Y64733D01*
X70875Y65427D01*
X70737Y66121D01*
X70352Y66698D01*
X70281Y66822D01*
Y67182D01*
X70352Y67306D01*
X70737Y67882D01*
X70875Y68577D01*
X70737Y69271D01*
X70352Y69847D01*
X70281Y69972D01*
Y70331D01*
X70352Y70455D01*
X70737Y71032D01*
X70875Y71726D01*
X70737Y72421D01*
X70344Y73009D01*
X69755Y73403D01*
X69061Y73541D01*
X68366Y73403D01*
X68025Y73776D01*
X67981Y73995D01*
X67588Y74584D01*
X67525Y74626D01*
Y75126D01*
X67588Y75168D01*
X67981Y75756D01*
X68025Y75976D01*
X68366Y76349D01*
X69061Y76211D01*
X69755Y76349D01*
X70344Y76742D01*
X70737Y77331D01*
X70875Y78025D01*
X70737Y78720D01*
X70352Y79296D01*
X70281Y79420D01*
Y79780D01*
X70352Y79904D01*
X70737Y80481D01*
X70875Y81175D01*
X70737Y81869D01*
X70352Y82446D01*
X70281Y82570D01*
Y82930D01*
X70352Y83054D01*
X70737Y83630D01*
X70875Y84325D01*
X70737Y85019D01*
X70344Y85608D01*
X69755Y86001D01*
X69061Y86139D01*
D02*
G37*
G36*
X21917Y81865D02*
X21429Y81768D01*
X21015Y81492D01*
X20739Y81078D01*
X20642Y80590D01*
X20739Y80103D01*
X21015Y79689D01*
X21429Y79413D01*
X21917Y79316D01*
X22404Y79413D01*
X22818Y79689D01*
X23094Y80103D01*
X23191Y80590D01*
X23094Y81078D01*
X22818Y81492D01*
X22404Y81768D01*
X21917Y81865D01*
D02*
G37*
G36*
X17483Y81558D02*
X16996Y81461D01*
X16582Y81185D01*
X16306Y80771D01*
X16209Y80284D01*
X16306Y79796D01*
X16582Y79383D01*
X16996Y79106D01*
X17483Y79009D01*
X17971Y79106D01*
X18384Y79383D01*
X18661Y79796D01*
X18758Y80284D01*
X18661Y80771D01*
X18384Y81185D01*
X17971Y81461D01*
X17483Y81558D01*
D02*
G37*
G36*
X55652Y81056D02*
X55165Y80959D01*
X54751Y80683D01*
X54475Y80270D01*
X54378Y79782D01*
X54475Y79294D01*
X54751Y78881D01*
X55165Y78605D01*
X55652Y78508D01*
X56140Y78605D01*
X56554Y78881D01*
X56981Y78621D01*
X57040Y78582D01*
X57528Y78485D01*
X58016Y78582D01*
X58429Y78859D01*
X58705Y79272D01*
X58802Y79760D01*
X58705Y80247D01*
X58429Y80661D01*
X58016Y80937D01*
X57528Y81034D01*
X57040Y80937D01*
X56626Y80661D01*
X56199Y80920D01*
X56140Y80959D01*
X55652Y81056D01*
D02*
G37*
G36*
X26936Y80455D02*
X26448Y80358D01*
X26035Y80081D01*
X25758Y79668D01*
X25661Y79180D01*
X25758Y78692D01*
X26035Y78279D01*
X26448Y78003D01*
X26936Y77906D01*
X27424Y78003D01*
X27722Y78202D01*
X28297Y78241D01*
X28710Y77965D01*
X29198Y77868D01*
X29686Y77965D01*
X30099Y78241D01*
X30375Y78654D01*
X30472Y79142D01*
X30375Y79630D01*
X30099Y80043D01*
X29686Y80320D01*
X29198Y80417D01*
X28710Y80320D01*
X28412Y80121D01*
X27837Y80081D01*
X27424Y80358D01*
X26936Y80455D01*
D02*
G37*
G36*
X57280Y75743D02*
X56792Y75646D01*
X56379Y75370D01*
X56102Y74956D01*
X56005Y74469D01*
X56102Y73981D01*
X56379Y73567D01*
X56792Y73291D01*
X57280Y73194D01*
X57767Y73291D01*
X58181Y73567D01*
X58457Y73981D01*
X58554Y74469D01*
X58457Y74956D01*
X58181Y75370D01*
X57767Y75646D01*
X57280Y75743D01*
D02*
G37*
G36*
X22128Y71355D02*
X21641Y71258D01*
X21227Y70981D01*
X20951Y70568D01*
X20854Y70080D01*
X20951Y69592D01*
X21227Y69179D01*
X21641Y68903D01*
X22128Y68806D01*
X22616Y68903D01*
X23030Y69179D01*
X23306Y69592D01*
X23403Y70080D01*
X23306Y70568D01*
X23030Y70981D01*
X22616Y71258D01*
X22128Y71355D01*
D02*
G37*
G36*
X56654Y71250D02*
X56166Y71153D01*
X55752Y70877D01*
X55476Y70464D01*
X55379Y69976D01*
X55476Y69488D01*
X55752Y69074D01*
X56166Y68798D01*
X56654Y68701D01*
X57142Y68798D01*
X57555Y69074D01*
X57831Y69488D01*
X57928Y69976D01*
X57831Y70464D01*
X57555Y70877D01*
X57142Y71153D01*
X56654Y71250D01*
D02*
G37*
G36*
X44500Y65275D02*
X44012Y65178D01*
X43599Y64901D01*
X43323Y64488D01*
X43225Y64000D01*
X43323Y63512D01*
X43599Y63099D01*
X44012Y62823D01*
X44500Y62726D01*
X44988Y62823D01*
X45401Y63099D01*
X45678Y63512D01*
X45774Y64000D01*
X45678Y64488D01*
X45401Y64901D01*
X44988Y65178D01*
X44500Y65275D01*
D02*
G37*
G36*
X54892Y64941D02*
X54404Y64844D01*
X53991Y64568D01*
X53714Y64154D01*
X53617Y63667D01*
X53714Y63179D01*
X53991Y62766D01*
X54404Y62489D01*
X54892Y62392D01*
X55379Y62489D01*
X55793Y62766D01*
X56069Y63179D01*
X56166Y63667D01*
X56069Y64154D01*
X55793Y64568D01*
X55379Y64844D01*
X54892Y64941D01*
D02*
G37*
G36*
X17507Y62282D02*
X15145D01*
X14762Y62124D01*
X14604Y61741D01*
Y59773D01*
X14762Y59390D01*
X15145Y59231D01*
X17507D01*
X17890Y59390D01*
X18048Y59773D01*
Y61741D01*
X17890Y62124D01*
X17507Y62282D01*
D02*
G37*
G36*
X28895Y60400D02*
X28408Y60303D01*
X27994Y60027D01*
X27718Y59614D01*
X27621Y59126D01*
X27718Y58638D01*
X27994Y58225D01*
X28408Y57949D01*
X28895Y57851D01*
X29383Y57949D01*
X29797Y58225D01*
X30073Y58638D01*
X30170Y59126D01*
X30073Y59614D01*
X29797Y60027D01*
X29383Y60303D01*
X28895Y60400D01*
D02*
G37*
G36*
X62436Y58433D02*
X61948Y58336D01*
X61535Y58059D01*
X61258Y57646D01*
X61161Y57158D01*
X61258Y56670D01*
X61535Y56257D01*
X61948Y55981D01*
X62436Y55884D01*
X62924Y55981D01*
X63337Y56257D01*
X63613Y56670D01*
X63710Y57158D01*
X63613Y57646D01*
X63337Y58059D01*
X62924Y58336D01*
X62436Y58433D01*
D02*
G37*
G36*
X43000Y57275D02*
X42512Y57178D01*
X42099Y56901D01*
X41822Y56488D01*
X41726Y56000D01*
X41822Y55512D01*
X42099Y55099D01*
X42512Y54822D01*
X43000Y54725D01*
X43488Y54822D01*
X43901Y55099D01*
X44177Y55512D01*
X44275Y56000D01*
X44177Y56488D01*
X43901Y56901D01*
X43488Y57178D01*
X43000Y57275D01*
D02*
G37*
G36*
X35187Y56448D02*
X34700Y56351D01*
X34286Y56075D01*
X34010Y55661D01*
X33913Y55174D01*
X34010Y54686D01*
X34286Y54273D01*
X34700Y53996D01*
X35187Y53899D01*
X35675Y53996D01*
X36089Y54273D01*
X36365Y54686D01*
X36462Y55174D01*
X36365Y55661D01*
X36089Y56075D01*
X35675Y56351D01*
X35187Y56448D01*
D02*
G37*
G36*
X25391Y53885D02*
X24904Y53788D01*
X24490Y53512D01*
X24363Y53320D01*
X23781Y53290D01*
X23685Y53434D01*
X23271Y53711D01*
X22784Y53808D01*
X22296Y53711D01*
X21882Y53434D01*
X21606Y53021D01*
X21509Y52533D01*
X21606Y52046D01*
X21882Y51632D01*
X22296Y51356D01*
X22784Y51259D01*
X23271Y51356D01*
X23685Y51632D01*
X23812Y51823D01*
X24394Y51853D01*
X24490Y51709D01*
X24904Y51433D01*
X25391Y51336D01*
X25879Y51433D01*
X26292Y51709D01*
X26310Y51735D01*
X26911D01*
X26938Y51695D01*
X27351Y51419D01*
X27839Y51322D01*
X28326Y51419D01*
X28740Y51695D01*
X29016Y52109D01*
X29113Y52596D01*
X29016Y53084D01*
X28740Y53497D01*
X28326Y53774D01*
X27839Y53871D01*
X27351Y53774D01*
X26938Y53497D01*
X26920Y53472D01*
X26319D01*
X26292Y53512D01*
X25879Y53788D01*
X25391Y53885D01*
D02*
G37*
G36*
X48583Y55767D02*
X48096Y55670D01*
X47682Y55394D01*
X47406Y54980D01*
X47309Y54492D01*
X47406Y54005D01*
X47682Y53591D01*
X48096Y53315D01*
X48583Y53218D01*
X49071Y53315D01*
X49484Y53591D01*
X49761Y54005D01*
X49858Y54492D01*
X49761Y54980D01*
X49484Y55394D01*
X49071Y55670D01*
X48583Y55767D01*
D02*
G37*
G36*
X50747Y52551D02*
X50260Y52454D01*
X49846Y52177D01*
X49570Y51764D01*
X49473Y51276D01*
X49570Y50788D01*
X49846Y50375D01*
X50260Y50099D01*
X50747Y50002D01*
X51235Y50099D01*
X51648Y50375D01*
X51925Y50788D01*
X52022Y51276D01*
X51925Y51764D01*
X51648Y52177D01*
X51235Y52454D01*
X50747Y52551D01*
D02*
G37*
G36*
X74243Y52589D02*
X73756Y52492D01*
X73342Y52216D01*
X73066Y51802D01*
X72969Y51315D01*
X73066Y50827D01*
X73342Y50414D01*
X73381Y50388D01*
Y49786D01*
X73362Y49774D01*
X73086Y49361D01*
X72989Y48873D01*
X73086Y48386D01*
X73362Y47972D01*
X73776Y47696D01*
X74264Y47599D01*
X74751Y47696D01*
X75165Y47972D01*
X75441Y48386D01*
X75538Y48873D01*
X75441Y49361D01*
X75165Y49774D01*
X75126Y49800D01*
Y50401D01*
X75144Y50414D01*
X75421Y50827D01*
X75518Y51315D01*
X75421Y51802D01*
X75144Y52216D01*
X74731Y52492D01*
X74243Y52589D01*
D02*
G37*
G36*
X22250Y49930D02*
X21762Y49833D01*
X21349Y49557D01*
X21072Y49143D01*
X20975Y48656D01*
X21072Y48168D01*
X21349Y47754D01*
X21241Y47264D01*
X21160Y47143D01*
X21063Y46656D01*
X21160Y46168D01*
X21437Y45754D01*
X21850Y45478D01*
X22338Y45381D01*
X22826Y45478D01*
X23239Y45754D01*
X23515Y46168D01*
X23612Y46656D01*
X23515Y47143D01*
X23239Y47557D01*
X23347Y48048D01*
X23427Y48168D01*
X23524Y48656D01*
X23427Y49143D01*
X23151Y49557D01*
X22738Y49833D01*
X22250Y49930D01*
D02*
G37*
G36*
X61784Y47319D02*
X61297Y47222D01*
X60883Y46945D01*
X60607Y46532D01*
X60510Y46044D01*
X60607Y45557D01*
X60883Y45143D01*
X61297Y44867D01*
X61784Y44770D01*
X62221Y44857D01*
X62272Y44867D01*
X62893Y44682D01*
X63306Y44406D01*
X63794Y44309D01*
X64282Y44406D01*
X64695Y44682D01*
X64972Y45096D01*
X65069Y45584D01*
X64972Y46071D01*
X64695Y46485D01*
X64282Y46761D01*
X63794Y46858D01*
X63358Y46771D01*
X63306Y46761D01*
X62686Y46945D01*
X62272Y47222D01*
X61784Y47319D01*
D02*
G37*
G36*
X91843Y44601D02*
X91356Y44504D01*
X90942Y44228D01*
X90666Y43814D01*
X90569Y43327D01*
X90666Y42839D01*
X90942Y42425D01*
X91356Y42149D01*
X91843Y42052D01*
X92331Y42149D01*
X92744Y42425D01*
X93021Y42839D01*
X93118Y43327D01*
X93021Y43814D01*
X92744Y44228D01*
X92331Y44504D01*
X91843Y44601D01*
D02*
G37*
G36*
X48135Y43270D02*
X47648Y43173D01*
X47234Y42897D01*
X46958Y42483D01*
X46861Y41996D01*
X46958Y41508D01*
X47234Y41095D01*
X47648Y40818D01*
X48135Y40721D01*
X48623Y40818D01*
X49037Y41095D01*
X49313Y41508D01*
X49410Y41996D01*
X49313Y42483D01*
X49037Y42897D01*
X48623Y43173D01*
X48135Y43270D01*
D02*
G37*
G36*
X24253Y44001D02*
X23765Y43904D01*
X23352Y43628D01*
X23076Y43214D01*
X22978Y42726D01*
X23076Y42239D01*
X23352Y41825D01*
X23765Y41549D01*
X24253Y41452D01*
X24741Y41549D01*
X24946Y41686D01*
X25473Y41797D01*
X25887Y41520D01*
X26375Y41423D01*
X26862Y41520D01*
X27176Y41129D01*
X27176Y41126D01*
X27453Y40712D01*
X27866Y40436D01*
X28354Y40339D01*
X28842Y40436D01*
X29255Y40712D01*
X29531Y41126D01*
X29628Y41614D01*
X29531Y42101D01*
X29255Y42515D01*
X28842Y42791D01*
X28354Y42888D01*
X27866Y42791D01*
X27553Y43183D01*
X27552Y43185D01*
X27276Y43599D01*
X26862Y43875D01*
X26375Y43972D01*
X25887Y43875D01*
X25682Y43738D01*
X25154Y43628D01*
X24741Y43904D01*
X24253Y44001D01*
D02*
G37*
G36*
X29993Y37682D02*
X29505Y37585D01*
X29092Y37309D01*
X28815Y36896D01*
X28718Y36408D01*
X28815Y35920D01*
X29092Y35507D01*
X29505Y35230D01*
X29993Y35133D01*
X30481Y35230D01*
X30894Y35507D01*
X31170Y35920D01*
X31267Y36408D01*
X31170Y36896D01*
X30894Y37309D01*
X30481Y37585D01*
X29993Y37682D01*
D02*
G37*
G36*
X57653Y34176D02*
X57165Y34079D01*
X56752Y33803D01*
X56476Y33390D01*
X56425Y33133D01*
X56108Y33196D01*
X55620Y33099D01*
X55207Y32823D01*
X54931Y32409D01*
X54834Y31922D01*
X54931Y31434D01*
X55207Y31021D01*
X55620Y30744D01*
X56108Y30647D01*
X56596Y30744D01*
X57009Y31021D01*
X57285Y31434D01*
X57336Y31690D01*
X57653Y31627D01*
X58141Y31724D01*
X58554Y32001D01*
X58830Y32414D01*
X58928Y32902D01*
X58830Y33390D01*
X58554Y33803D01*
X58141Y34079D01*
X57653Y34176D01*
D02*
G37*
G36*
X17507Y36081D02*
X15145D01*
X14762Y35923D01*
X14604Y35540D01*
Y32115D01*
X14762Y31732D01*
X15145Y31574D01*
X17507D01*
X17890Y31732D01*
X18048Y32115D01*
Y35540D01*
X17890Y35923D01*
X17507Y36081D01*
D02*
G37*
G36*
X69072Y32100D02*
X68378Y31962D01*
X67789Y31569D01*
X67396Y30980D01*
X67257Y30286D01*
X67396Y29591D01*
X67781Y29015D01*
X67852Y28891D01*
Y28531D01*
X67781Y28407D01*
X67396Y27830D01*
X67352Y27610D01*
X67010Y27237D01*
X66316Y27376D01*
X65622Y27237D01*
X65033Y26844D01*
X64640Y26255D01*
X64502Y25561D01*
X64640Y24867D01*
X65033Y24278D01*
X65096Y24236D01*
Y23736D01*
X65033Y23694D01*
X64640Y23106D01*
X64502Y22411D01*
X64640Y21717D01*
X65033Y21128D01*
X65096Y21087D01*
Y20587D01*
X65033Y20545D01*
X64640Y19956D01*
X64502Y19262D01*
X64640Y18567D01*
X65033Y17979D01*
X65096Y17937D01*
Y17437D01*
X65033Y17395D01*
X64640Y16807D01*
X64502Y16112D01*
X64640Y15418D01*
X65033Y14829D01*
X65622Y14436D01*
X66316Y14298D01*
X67010Y14436D01*
X67352Y14063D01*
X67396Y13843D01*
X67781Y13267D01*
X67852Y13143D01*
Y12783D01*
X67781Y12659D01*
X67396Y12082D01*
X67257Y11388D01*
X67396Y10694D01*
X67789Y10105D01*
X68378Y9712D01*
X69072Y9573D01*
X69766Y9712D01*
X70355Y10105D01*
X70701Y10623D01*
X72285D01*
X72437Y10396D01*
X72851Y10120D01*
X73338Y10023D01*
X73826Y10120D01*
X74239Y10396D01*
X74516Y10810D01*
X74613Y11298D01*
X74516Y11785D01*
X74239Y12199D01*
X73826Y12475D01*
X73338Y12572D01*
X72851Y12475D01*
X72437Y12199D01*
X72406Y12152D01*
X70701D01*
X70363Y12659D01*
X70292Y12783D01*
Y13143D01*
X70363Y13267D01*
X70748Y13843D01*
X70886Y14537D01*
X70748Y15232D01*
X70363Y15808D01*
X70292Y15932D01*
Y16292D01*
X70363Y16416D01*
X70748Y16993D01*
X70886Y17687D01*
X70748Y18381D01*
X70355Y18970D01*
X69766Y19363D01*
X69072Y19501D01*
X68378Y19363D01*
X68036Y19736D01*
X67992Y19956D01*
X67599Y20545D01*
X67536Y20587D01*
Y21087D01*
X67599Y21128D01*
X67992Y21717D01*
X68036Y21937D01*
X68378Y22310D01*
X69072Y22172D01*
X69766Y22310D01*
X70355Y22703D01*
X70748Y23292D01*
X70886Y23986D01*
X70748Y24681D01*
X70363Y25257D01*
X70292Y25381D01*
Y25741D01*
X70363Y25865D01*
X70748Y26441D01*
X70886Y27136D01*
X70748Y27830D01*
X70363Y28407D01*
X70292Y28531D01*
Y28891D01*
X70363Y29015D01*
X70701Y29521D01*
X72792D01*
X72885Y29382D01*
X73298Y29106D01*
X73786Y29009D01*
X74273Y29106D01*
X74687Y29382D01*
X74963Y29796D01*
X75060Y30283D01*
X74963Y30771D01*
X74687Y31185D01*
X74273Y31461D01*
X73786Y31558D01*
X73298Y31461D01*
X72885Y31185D01*
X72795Y31050D01*
X70701D01*
X70355Y31569D01*
X69766Y31962D01*
X69072Y32100D01*
D02*
G37*
G36*
X29983Y29205D02*
X29496Y29108D01*
X29082Y28832D01*
X28806Y28418D01*
X28709Y27931D01*
X28806Y27443D01*
X29082Y27029D01*
X29496Y26753D01*
X29983Y26656D01*
X30471Y26753D01*
X30885Y27029D01*
X31161Y27443D01*
X31258Y27931D01*
X31161Y28418D01*
X30885Y28832D01*
X30471Y29108D01*
X29983Y29205D01*
D02*
G37*
G36*
X53650Y28397D02*
X53162Y28300D01*
X52749Y28024D01*
X52472Y27610D01*
X52375Y27123D01*
X52472Y26635D01*
X52749Y26221D01*
X53162Y25945D01*
X53240Y25930D01*
X53727Y25813D01*
X53824Y25325D01*
X54100Y24912D01*
X54513Y24636D01*
X55001Y24539D01*
X55489Y24636D01*
X55902Y24912D01*
X56179Y25325D01*
X56276Y25813D01*
X56179Y26301D01*
X55902Y26714D01*
X55489Y26991D01*
X55411Y27006D01*
X54924Y27123D01*
X54827Y27610D01*
X54551Y28024D01*
X54138Y28300D01*
X53650Y28397D01*
D02*
G37*
G36*
X57384Y23775D02*
X56896Y23678D01*
X56483Y23402D01*
X56206Y22988D01*
X56109Y22501D01*
X56206Y22013D01*
X56434Y21672D01*
X56461Y21504D01*
X56363Y21078D01*
X56099Y20901D01*
X55822Y20488D01*
X55726Y20000D01*
X55822Y19512D01*
X56099Y19099D01*
X56512Y18823D01*
X57000Y18725D01*
X57488Y18823D01*
X57901Y19099D01*
X58178Y19512D01*
X58275Y20000D01*
X58178Y20488D01*
X57950Y20829D01*
X57923Y20997D01*
X58021Y21423D01*
X58285Y21599D01*
X58561Y22013D01*
X58658Y22501D01*
X58561Y22988D01*
X58285Y23402D01*
X57872Y23678D01*
X57384Y23775D01*
D02*
G37*
G36*
X52590Y18702D02*
X52102Y18605D01*
X51689Y18328D01*
X51412Y17915D01*
X51315Y17427D01*
X51412Y16939D01*
X51689Y16526D01*
X52102Y16250D01*
X52590Y16153D01*
X52793Y15720D01*
X52824Y15561D01*
X53101Y15147D01*
X53514Y14871D01*
X54002Y14774D01*
X54489Y14871D01*
X54903Y15147D01*
X55179Y15561D01*
X55276Y16048D01*
X55179Y16536D01*
X54903Y16949D01*
X54489Y17226D01*
X54002Y17323D01*
X53799Y17756D01*
X53768Y17915D01*
X53491Y18328D01*
X53078Y18605D01*
X52590Y18702D01*
D02*
G37*
%LPD*%
D13*
X69072Y11388D02*
X73367D01*
X69072Y30286D02*
X73950D01*
D50*
X66316Y12963D02*
D03*
Y28711D02*
D03*
Y9813D02*
D03*
Y31860D02*
D03*
X69072Y11388D02*
D03*
Y30286D02*
D03*
X66305Y85899D02*
D03*
Y63852D02*
D03*
Y82750D02*
D03*
Y67002D02*
D03*
D51*
X70843Y37648D02*
D03*
Y4026D02*
D03*
X89465Y37648D02*
D03*
Y4026D02*
D03*
X89454Y58065D02*
D03*
Y91687D02*
D03*
X70832Y58065D02*
D03*
Y91687D02*
D03*
D52*
X14070Y78464D02*
D03*
X16351Y70330D02*
D03*
X30888Y71054D02*
D03*
X29381Y72561D02*
D03*
X73786Y30283D02*
D03*
X73338Y11298D02*
D03*
X50862Y80914D02*
D03*
X19794Y65601D02*
D03*
X23438Y58462D02*
D03*
X23063Y62712D02*
D03*
X19808Y29570D02*
D03*
X23089Y32681D02*
D03*
X86060Y41742D02*
D03*
X62626Y32934D02*
D03*
X60696Y52220D02*
D03*
X62691Y49843D02*
D03*
X64758Y49830D02*
D03*
X57904Y10009D02*
D03*
X55989Y10018D02*
D03*
X30076Y86254D02*
D03*
D53*
X36958Y83869D02*
D03*
X44832D02*
D03*
X36958Y79932D02*
D03*
X44832D02*
D03*
X40895Y83869D02*
D03*
Y79932D02*
D03*
X44832Y75995D02*
D03*
X40895D02*
D03*
X36958D02*
D03*
M02*
